<?xml version="1.0" encoding="UTF-8" standalone="no"?>
<!-- Created with Inkscape (http://www.inkscape.org/) -->

<svg
   version="1.1"
   id="svg2"
   width="281.89334"
   height="96"
   viewBox="0 0 281.89334 96"
   sodipodi:docname="NYU.eps"
   xmlns:inkscape="http://www.inkscape.org/namespaces/inkscape"
   xmlns:sodipodi="http://sodipodi.sourceforge.net/DTD/sodipodi-0.dtd"
   xmlns="http://www.w3.org/2000/svg"
   xmlns:svg="http://www.w3.org/2000/svg">
  <defs
     id="defs6" />
  <sodipodi:namedview
     id="namedview4"
     pagecolor="#ffffff"
     bordercolor="#000000"
     borderopacity="0.25"
     inkscape:showpageshadow="2"
     inkscape:pageopacity="0.0"
     inkscape:pagecheckerboard="0"
     inkscape:deskcolor="#d1d1d1" />
  <g
     id="g8"
     inkscape:groupmode="layer"
     inkscape:label="ink_ext_XXXXXX"
     transform="matrix(1.3333333,0,0,-1.3333333,0,96)">
    <g
       id="g10"
       transform="scale(0.1)">
      <path
         d="m 906.711,567.68 h 82.992 L 1181.26,315.859 V 567.68 h 88.8 V 158.699 h -76.5 L 995.484,418.695 V 158.699 H 906.711 V 567.68"
         style="fill:#4f2887;fill-opacity:1;fill-rule:nonzero;stroke:none"
         id="path12" />
      <path
         d="M 1472.15,319.973 1315.01,567.68 h 105.18 l 97.59,-164.188 99.29,164.188 h 102.19 L 1562.15,321.691 V 158.699 h -90 v 161.274"
         style="fill:#4f2887;fill-opacity:1;fill-rule:nonzero;stroke:none"
         id="path14" />
      <path
         d="M 1757.83,333.984 V 567.68 h 90 V 336.309 c 0,-66.59 33.2,-101.075 88.17,-101.075 54.87,0 88.23,33.332 88.23,98.125 V 567.68 h 89.92 V 336.906 c 0,-123.832 -69.53,-184.609 -179.37,-184.609 -109.77,0 -176.95,61.324 -176.95,181.687"
         style="fill:#4f2887;fill-opacity:1;fill-rule:nonzero;stroke:none"
         id="path16" />
      <path
         d="M 616.383,47.7656 H 78.3984 V 670 H 616.383 V 47.7656"
         style="fill:#ffffff;fill-opacity:1;fill-rule:nonzero;stroke:none"
         id="path18" />
      <path
         d="m 317.266,344.465 c -73.789,44.043 -66.407,106.918 -35.821,153.144 0.664,0.961 0.875,2.579 0.664,4.454 -1.289,10.984 -13.281,38.796 -18.281,46.359 -1.289,1.914 -2.383,1.766 -2.5,0.406 -0.414,-12.578 -14.726,-44.086 -36.625,-80.375 -23.281,-38.633 -23.336,-122.445 92.25,-125.719 1.094,-0.039 1.406,1.094 0.313,1.731 z m 19.742,3.262 c -44.117,94.242 44.125,155.117 58.5,168.312 2.031,1.852 1.523,3.57 1.562,5.68 0,29.679 -16.992,77.687 -22.562,84.562 -0.781,1.047 -1.461,0.594 -1.774,-0.476 -7.539,-29.258 -47.695,-72.844 -55.781,-82.391 -68.125,-80.992 -52.539,-130.312 18.594,-176.84 0.898,-0.566 1.992,0.078 1.461,1.153 z m 14.375,4.003 c 20.844,99.965 102.211,102.411 109.492,121.372 11.352,29.578 -9.43,82.086 -14.742,88.296 -0.508,0.665 -1.25,0.243 -1.508,-0.312 -11.031,-24.227 -28.922,-47.281 -41.969,-57.883 -18.461,-14.867 -89.14,-67.25 -52.992,-151.551 0.414,-1.035 1.469,-0.785 1.719,0.078 z m 14.476,-8.683 c 131.735,-4.766 141.055,115.289 141.579,160.211 0.062,2.601 -1.25,2.836 -1.875,1.015 -3.907,-9.375 -21.032,-42.859 -68.532,-63.203 -42.422,-18.207 -67.929,-59.492 -72.367,-96.605 -0.211,-0.91 0.57,-1.418 1.195,-1.418 z m 29.961,-45 v 30.234 H 291.914 V 298.047 H 395.82 Z M 335.078,84.1719 c 0.836,-5.0586 11.774,-7.5313 14.219,0 L 374.453,283.621 H 313.32 L 335.078,84.1719 Z M 719.961,0 H 0 V 720 H 719.961 V 0 0"
         style="fill:#4f2887;fill-opacity:1;fill-rule:nonzero;stroke:none"
         id="path20" />
    </g>
  </g>
</svg>
